<?xml version="1.0" encoding="UTF-8"?>
<!DOCTYPE svg PUBLIC "-//W3C//DTD SVG 1.1//EN" "http://www.w3.org/Graphics/SVG/1.1/DTD/svg11.dtd">
<!-- Creator: CorelDRAW X6 -->
<svg xmlns="http://www.w3.org/2000/svg" xml:space="preserve" width="3508px" height="2480px" version="1.1" style="shape-rendering:geometricPrecision; text-rendering:geometricPrecision; image-rendering:optimizeQuality; fill-rule:evenodd; clip-rule:evenodd"
viewBox="0 0 3508 2480"
 xmlns:xlink="http://www.w3.org/1999/xlink">
 <defs>
  <style type="text/css">
   <![CDATA[
    .fil0 {fill:#ffffff;fill-rule:nonzero}
   ]]>
  </style>
 </defs>
 <g id="Layer_x0020_1">
  <metadata id="CorelCorpID_0Corel-Layer"/>
  <path class="fil0" d="M402 463l-161 0c-28,0 -51,23 -51,51l0 35 0 90 0 35c0,28 23,51 51,51l161 0c28,0 51,-23 51,-51l0 -35 0 -90 0 -35c0,-28 -23,-51 -51,-51zm81 1158l0 0 -2 -2c-14,-15 -23,-32 -27,-52 0,-2 -1,-5 -1,-7 0,-2 -1,-80 -1,-131l0 0 0 -548c0,-28 -23,-51 -51,-51l-161 0c-28,0 -51,23 -51,51l0 532 0 41 0 96c0,96 37,187 105,255 67,68 157,106 252,107l0 0 2 0 224 0 -290 -290zm1112 -795l0 0 0 -2c0,-6 0,-12 0,-18 -4,-76 -31,-147 -77,-206 -9,-11 -18,-21 -28,-31 -34,-34 -73,-60 -115,-78 -43,-18 -89,-28 -136,-29l0 0 -2 0 -313 0c-43,0 -84,7 -124,22 -6,2 -11,4 -17,6 -43,18 -82,44 -115,77 -29,29 -53,62 -70,99 -2,5 -5,11 -7,16 -19,45 -28,92 -28,141l0 2 0 2 0 1c1,65 19,129 53,184 33,54 79,98 134,129 4,2 38,18 87,42 3,2 6,3 9,4 151,71 429,201 487,228 0,28 0,70 0,101 0,25 0,43 0,44 0,2 -1,5 -1,7 -3,15 -9,29 -18,42 -3,3 -5,7 -9,10 -5,5 -11,10 -17,14 -16,10 -33,15 -52,16l-3 0 -296 0 -95 0 -104 0 263 263 22 0 -12 0 228 0 1 0 1 0 0 0c59,-1 117,-16 168,-44 31,-17 59,-38 84,-63 10,-10 19,-20 28,-31 46,-59 73,-130 77,-205 0,-6 0,-12 0,-18l0 -722 0 -1 0 0zm-263 9l0 0 0 50 0 254c-69,-35 -459,-230 -459,-230 -1,-1 -3,-2 -4,-3 -3,-2 -6,-4 -9,-6 -22,-18 -35,-45 -35,-75l0 -1 1 -11 1 -7 0 -3 2 -6 1 -3 3 -9 1 -2 2 -4 0 0 0 0 0 -1 0 -1 0 -1 0 0c1,-2 2,-3 3,-5 3,-5 6,-9 10,-13l4 -4 2 -2 2 -2 4 -3 8 -6 8 -5 9 -4 9 -3 10 -2 10 -1 9 0 1 0 307 0 3 0c5,0 9,1 13,1 21,3 41,13 56,28 19,18 29,43 29,69l0 11zm1900 354l1 -20 123 -8 -1 20 -55 606 -80 5 12 -603zm79 761l-123 7 7 -131 123 -7 -7 131zm-251 -770l82 781 -126 8 -47 -543 -46 260 0 1 31 -2 -7 124 -51 3 -35 166 -124 8 35 -166 -28 2 7 -124 48 -3 107 -505 152 -9zm-441 27c12,-1 23,1 34,5 11,4 20,10 27,18 7,8 13,17 17,28 4,11 6,22 5,34l-34 608c-1,25 -11,46 -30,65 -19,18 -40,28 -64,30l-268 16 29 -517 123 -8 -22 393 110 -7 30 -540 -110 7 -8 148 -110 -238 2 -26 268 -16zm-386 809l-123 7 45 -788 123 -7 -45 788zm-169 -775l26 -2 -5 27 -169 751 -3 18 -19 1 -108 6 -19 1 -2 -18 -84 -736 -3 -27 27 -2 80 -5 19 -1 2 19 47 531 108 -541 4 -19 19 -1 80 -5zm777 -911l82 781 -126 8 -46 -542 -46 260 0 1 31 -2 -7 124 -51 3 -35 166 -124 8 35 -166 -28 2 7 -124 48 -3 107 -505 152 -9zm-352 19l0 0 -38 679c-2,28 -12,53 -31,75 -19,22 -42,36 -68,41l-2 1 -2 0 -163 10 -1 0 -2 -1c-26,-2 -47,-13 -64,-33 -17,-19 -24,-43 -23,-72l38 -679 123 -8 -38 667 110 -7 38 -667 123 -8zm-459 67l0 0c17,21 24,45 23,72l-5 84 -1 23 -23 1 -78 5 -22 1 1 -22 4 -71 -95 6 -8 141 0 6 106 -6c32,-2 58,7 78,28 21,20 30,46 28,78l-6 112 -10 182c-2,27 -12,52 -31,75 -19,21 -42,35 -69,41l-2 1 -1 0 -147 9 -1 0 -2 -1c-27,-3 -48,-14 -65,-33 -17,-21 -24,-45 -23,-72l5 -84 1 -23 22 -1 79 -5 22 -1 -1 23 -4 72 95 -6 15 -270 -107 6c-31,2 -57,-7 -78,-28 -20,-20 -30,-46 -28,-78l1 -8 1 -10 9 -153c1,-27 12,-52 31,-75 19,-21 42,-35 69,-41l2 0 1 0 147 -9 1 0 2 0c27,3 48,14 65,33z"/>
 </g>
</svg>
